<mxfile host="app.diagrams.net" modified="2020-05-25T02:45:25.819Z" agent="5.0 (Windows NT 10.0; Win64; x64) AppleWebKit/537.36 (KHTML, like Gecko) Chrome/80.0.3987.122 Safari/537.36" etag="XVIxBu7qyn8z_z-oWsJu" version="13.1.3" type="github">
  <diagram id="vCc34Ys1WX32NkUOmZ9f" name="服务创建">
    <mxGraphModel dx="981" dy="548" grid="0" gridSize="10" guides="1" tooltips="1" connect="1" arrows="1" fold="1" page="1" pageScale="1" pageWidth="827" pageHeight="1169" math="0" shadow="0">
      <root>
        <mxCell id="0" />
        <mxCell id="1" parent="0" />
        <mxCell id="gTeQkE_xP5mdwYItV0FV-1" value="Eureka" style="rounded=1;whiteSpace=wrap;html=1;" vertex="1" parent="1">
          <mxGeometry x="335" y="189" width="120" height="39" as="geometry" />
        </mxCell>
        <mxCell id="gTeQkE_xP5mdwYItV0FV-3" value="TodoService" style="rounded=1;whiteSpace=wrap;html=1;" vertex="1" parent="1">
          <mxGeometry x="105" y="308" width="120" height="41" as="geometry" />
        </mxCell>
        <mxCell id="gTeQkE_xP5mdwYItV0FV-4" value="TodoWebSite" style="rounded=1;whiteSpace=wrap;html=1;" vertex="1" parent="1">
          <mxGeometry x="539" y="308" width="120" height="41" as="geometry" />
        </mxCell>
      </root>
    </mxGraphModel>
  </diagram>
</mxfile>
